<svg width="128" height="128" viewBox="0 0 128 128" fill="none" xmlns="http://www.w3.org/2000/svg">
  <defs>
    <linearGradient id="pp-grad" x1="18" y1="14" x2="110" y2="114" gradientUnits="userSpaceOnUse">
      <stop offset="0" stop-color="#2563EB"/>
      <stop offset="1" stop-color="#14B8A6"/>
    </linearGradient>
  </defs>
  <rect x="8" y="8" width="112" height="112" rx="28" fill="#0B1220"/>
  <rect x="12" y="12" width="104" height="104" rx="24" fill="url(#pp-grad)"/>
  <path d="M38 80V48H60C69.9411 48 78 56.0589 78 66C78 75.9411 69.9411 84 60 84H50V80H38ZM50 72H59.5C63.6421 72 67 68.6421 67 64.5C67 60.3579 63.6421 57 59.5 57H50V72Z" fill="white"/>
  <path d="M76 46H90C97.732 46 104 52.268 104 60C104 67.732 97.732 74 90 74H84V88H76V46ZM84 66H89.5C92.5376 66 95 63.5376 95 60.5C95 57.4624 92.5376 55 89.5 55H84V66Z" fill="white" fill-opacity="0.95"/>
  <circle cx="34" cy="36" r="6" fill="#EAF2FF"/>
  <circle cx="52" cy="28" r="4" fill="#EAF2FF" fill-opacity="0.8"/>
  <path d="M38 34L48 30" stroke="#EAF2FF" stroke-width="3" stroke-linecap="round"/>
</svg>
